<?xml version="1.0" standalone="no"?>
<svg version="1.1" id="downloadSvg" xmlns="http://www.w3.org/2000/svg" xmlns:xlink="http://www.w3.org/1999/xlink" x="0px" y="0px" viewBox="0 0 1200 1200" enable-background="new 0 0 1200 1200" xml:space="preserve" height="512" width="512">
<g>
	<path fill="#E2DED6" d="M711.718,225.866c-309.148-28.045-450.31,120.336-475.396,326.596&#10;&#9;&#9;c-9.888,81.31-2.808,158.314,29.335,223.95c-30.135,27.69-84.715,61.404-165.657,50.818&#10;&#9;&#9;c79.228,30.323,155.495,30.321,213.691,18.789c60.582,64.698,158.793,110.603,307.182,126.779&#10;&#9;&#9;c313.214,34.139,450.311-120.338,475.397-326.598C1121.355,439.941,1022.83,254.088,711.718,225.866z" style="fill: rgb(204, 74, 22);"/>
	<g>
		<g>
			<path fill="#562D3B" d="M345.331,614.326c-3.419-27.829-5.354-58.622,4.728-86.092c6.917-18.848,23.101-31.695,43.176-33.278&#10;&#9;&#9;&#9;&#9;c10.778-0.849,20.47,0.913,28.778,5.419c8.303,4.506,15.357,11.318,21.137,20.371c5.782,9.057,10.44,20.172,13.888,33.296&#10;&#9;&#9;&#9;&#9;c3.795,14.452,6.215,29.499,7.222,44.277c1.86,27.342,2.21,56.272-7.965,82.417c-6.873,17.652-21.296,31.769-40.31,35.236&#10;&#9;&#9;&#9;&#9;c-10.085,1.839-19.013,1.001-26.74-2.809c-7.729-3.81-14.482-10.128-20.287-19.009c-5.804-8.878-10.699-20.125-14.571-33.668&#10;&#9;&#9;&#9;&#9;C350.052,645.315,347.211,629.628,345.331,614.326z M376.992,609.374c1.092,10.747,2.832,20.854,4.821,30.005&#10;&#9;&#9;&#9;&#9;c1.99,9.155,4.459,16.912,7.396,23.274c2.936,6.36,6.287,11.183,10.052,14.465c3.763,3.282,8.116,4.484,13.097,3.638&#10;&#9;&#9;&#9;&#9;c9.019-1.533,15.342-8.66,18.612-21.104c4.838-18.407,3.333-38.889,1.525-57.749c-0.976-10.178-2.337-19.799-4.165-28.808&#10;&#9;&#9;&#9;&#9;c-1.827-9.003-4.157-16.752-7.007-23.255c-2.848-6.498-6.282-11.541-10.284-15.114c-4.006-3.573-8.826-5.173-14.178-4.552&#10;&#9;&#9;&#9;&#9;C366.528,533.688,375.067,590.414,376.992,609.374z" style="fill: rgb(255, 255, 255);"/>
			<path fill="#562D3B" d="M478.226,596.899c-1.703-26.665-2.46-55.502,8.951-80.68c8.11-17.888,25.193-28.446,44.646-28.701&#10;&#9;&#9;&#9;&#9;c10.776-0.14,20.353,2.093,28.416,6.824c8.06,4.731,14.755,11.549,20.078,20.385c5.326,8.84,9.428,19.542,12.232,32.05&#10;&#9;&#9;&#9;&#9;c3.077,13.727,4.549,27.898,5.057,41.925c0.923,25.587-0.707,53.354-11.951,76.81c-8.003,16.695-23.389,28.717-41.953,30.841&#10;&#9;&#9;&#9;&#9;c-10.14,1.16-19.024-0.093-26.547-4.092c-7.522-3.998-13.947-10.307-19.3-18.974c-5.352-8.664-9.682-19.511-12.873-32.463&#10;&#9;&#9;&#9;&#9;C481.438,626.448,479.159,611.533,478.226,596.899z M510.032,594.03c0.543,10.14,1.799,19.758,3.332,28.469&#10;&#9;&#9;&#9;&#9;c1.535,8.715,3.616,16.145,6.234,22.286c2.615,6.139,5.724,10.858,9.318,14.15c3.594,3.292,7.882,4.66,12.893,4.141&#10;&#9;&#9;&#9;&#9;c9.073-0.939,15.797-7.313,19.598-18.77c5.708-17.198,4.953-36.22,4.339-54.102c-0.328-9.512-1.361-18.71-2.745-27.268&#10;&#9;&#9;&#9;&#9;c-1.386-8.554-3.335-15.962-5.858-22.231c-2.523-6.266-5.706-11.203-9.521-14.793c-3.82-3.593-8.557-5.397-13.908-5.114&#10;&#9;&#9;&#9;&#9;C503.938,522.376,509.022,575.182,510.032,594.03z" style="fill: rgb(255, 255, 255);"/>
			<path fill="#562D3B" d="M611.605,588.198c-0.794-24.904,0.506-52.633,12.824-75.014c9.215-16.743,27.265-25.088,45.903-24.041&#10;&#9;&#9;&#9;&#9;c10.706,0.601,20.193,3.261,28.008,8.201c7.814,4.94,14.174,11.737,19.064,20.329c4.892,8.595,8.445,18.826,10.679,30.697&#10;&#9;&#9;&#9;&#9;c2.234,11.868,3.482,25.252,3.062,39.44c-0.712,24.067-2.981,49.296-15.591,70.959c-9.135,15.691-25.317,25.492-43.385,26.351&#10;&#9;&#9;&#9;&#9;c-10.173,0.484-18.994-1.18-26.314-5.353c-7.32-4.174-13.434-10.45-18.358-18.872c-4.921-8.422-8.715-18.834-11.277-31.153&#10;&#9;&#9;&#9;&#9;C613.388,616.106,612.048,602.082,611.605,588.198z M643.482,587.411c0.229,9.604,0.84,18.6,1.953,26.843&#10;&#9;&#9;&#9;&#9;c1.113,8.246,2.831,15.324,5.147,21.224c2.315,5.898,5.191,10.496,8.621,13.786c3.432,3.29,7.648,4.82,12.675,4.63&#10;&#9;&#9;&#9;&#9;c9.107-0.345,16.133-5.91,20.474-16.384c6.5-15.675,6.677-33.558,6.917-50.279c0.128-8.899-0.467-17.561-1.441-25.643&#10;&#9;&#9;&#9;&#9;c-0.975-8.076-2.568-15.117-4.788-21.132c-2.218-6.012-5.15-10.829-8.786-14.424c-3.637-3.598-8.236-5.551-13.63-5.658&#10;&#9;&#9;&#9;&#9;C641.753,519.801,643.04,568.915,643.482,587.411z" style="fill: rgb(255, 255, 255);"/>
			<path fill="#562D3B" d="M750.707,499.681c6.007-0.9,12.594-1.413,19.759-1.531c7.163-0.118,14.331,0.194,21.477,0.921&#10;&#9;&#9;&#9;&#9;c7.638,0.778,15.13,2.302,22.452,4.539c7.317,2.237,13.783,5.782,19.361,10.573c5.577,4.791,9.974,11.133,13.174,18.98&#10;&#9;&#9;&#9;&#9;c3.202,7.849,4.438,17.693,3.757,29.584c-0.615,10.753-2.633,19.731-6.027,26.99c-3.395,7.265-7.695,13.101-12.891,17.533&#10;&#9;&#9;&#9;&#9;c-5.204,4.437-11.072,7.568-17.617,9.38c-6.551,1.813-13.241,2.592-20.086,2.305c-0.635-0.026-1.672-0.071-3.102-0.129&#10;&#9;&#9;&#9;&#9;c-1.433-0.058-2.949-0.155-4.535-0.301c-1.587-0.146-3.142-0.333-4.645-0.555c-1.506-0.223-2.582-0.425-3.21-0.619&#10;&#9;&#9;&#9;&#9;c-0.622,20.425-1.255,40.85-1.873,61.274c-11.774-0.005-17.662,0.037-29.431,0.207&#10;&#9;&#9;&#9;&#9;C748.423,619.117,749.56,559.399,750.707,499.681z M779.456,588.622c0.956,0.39,2.756,0.773,5.402,1.166&#10;&#9;&#9;&#9;&#9;c2.645,0.394,4.452,0.618,5.416,0.671c3.538,0.194,6.927-0.118,10.188-0.929c3.258-0.81,6.182-2.341,8.781-4.588&#10;&#9;&#9;&#9;&#9;c2.599-2.246,4.724-5.433,6.367-9.56c1.642-4.127,2.614-9.418,2.905-15.889c0.244-5.477-0.236-10.184-1.458-14.134&#10;&#9;&#9;&#9;&#9;c-1.221-3.947-2.977-7.162-5.258-9.635c-2.285-2.475-4.973-4.366-8.055-5.661c-3.083-1.293-6.353-2.096-9.808-2.403&#10;&#9;&#9;&#9;&#9;c-5.099-0.453-9.308-0.386-12.622,0.19C780.691,548.108,780.074,568.364,779.456,588.622z" style="fill: rgb(255, 255, 255);"/>
			<path fill="#562D3B" d="M919.608,641.552c0.431-4.981-0.703-9.374-3.42-13.196c-2.723-3.823-6.227-7.539-10.522-11.153&#10;&#9;&#9;&#9;&#9;c-4.291-3.609-8.99-7.357-14.102-11.229c-5.115-3.874-9.81-8.271-14.088-13.216c-4.275-4.942-7.758-10.64-10.437-17.083&#10;&#9;&#9;&#9;&#9;c-2.68-6.444-3.771-14.135-3.219-23.032c0.511-8.248,2.213-15.099,5.123-20.505c2.906-5.4,6.709-9.612,11.409-12.6&#10;&#9;&#9;&#9;&#9;c4.696-2.986,10.168-4.85,16.408-5.593c6.235-0.743,12.839-0.542,19.777,0.584c8.432,1.369,16.207,3.48,23.324,6.28&#10;&#9;&#9;&#9;&#9;c7.118,2.801,12.932,5.942,17.448,9.393c-4.842,9.509-7.248,14.299-12.024,23.949c-2.603-2.287-6.565-4.642-11.9-7.042&#10;&#9;&#9;&#9;&#9;c-5.338-2.402-11.205-4.093-17.591-5.037c-6.383-0.944-11.398-0.383-15.025,1.671c-3.629,2.058-5.621,5.566-5.985,10.486&#10;&#9;&#9;&#9;&#9;c-0.329,4.447,0.935,8.576,3.755,12.365c2.823,3.788,6.423,7.551,10.775,11.272c4.354,3.725,9.088,7.606,14.194,11.643&#10;&#9;&#9;&#9;&#9;c5.105,4.035,9.743,8.553,13.905,13.536c4.163,4.982,7.469,10.618,9.92,16.888c2.454,6.27,3.269,13.438,2.467,21.53&#10;&#9;&#9;&#9;&#9;c-0.803,8.095-2.721,14.983-5.737,20.709c-3.017,5.728-6.938,10.359-11.755,13.915c-4.817,3.554-10.43,6.124-16.833,7.707&#10;&#9;&#9;&#9;&#9;c-6.404,1.583-13.41,2.165-21.03,1.723c-9.65-0.561-18.019-1.931-25.132-4.196c-7.111-2.265-12.551-4.681-16.303-7.277&#10;&#9;&#9;&#9;&#9;c4.508-10.824,6.78-16.201,11.364-26.876c3.029,2.133,7.234,4.336,12.608,6.62c5.37,2.283,11.192,3.639,17.48,4.103&#10;&#9;&#9;&#9;&#9;C910.178,659.049,918.554,653.698,919.608,641.552z" style="fill: rgb(255, 255, 255);"/>
			<path fill="#562D3B" d="M969.17,673.264c0.606-5.564,2.588-9.613,5.969-12.104c3.38-2.49,7.597-3.416,12.634-2.781&#10;&#9;&#9;&#9;&#9;c5.503,0.692,9.581,2.658,12.226,5.845c2.646,3.186,3.624,7.496,2.954,12.931c-0.652,5.292-2.684,9.22-6.075,11.825&#10;&#9;&#9;&#9;&#9;c-3.392,2.603-7.719,3.635-13.003,3.086c-5.131-0.534-9.014-2.426-11.641-5.722C969.606,683.046,968.583,678.679,969.17,673.264z&#10;&#9;&#9;&#9;&#9; M987.442,530.495c12.132,2.373,18.191,3.603,30.299,6.152c-6.401,35.931-12.728,71.875-18.966,107.835&#10;&#9;&#9;&#9;&#9;c-7.115-0.998-10.675-1.482-17.794-2.417C983.203,604.879,985.352,567.689,987.442,530.495z" style="fill: rgb(255, 255, 255);"/>
		</g>
	</g>
</g>
</svg>